<?xml version="1.0" encoding="utf-8"?>
<!-- Generator: Adobe Illustrator 21.0.2, SVG Export Plug-In . SVG Version: 6.00 Build 0)  -->
<svg version="1.1" id="Layer_1" xmlns="http://www.w3.org/2000/svg" xmlns:xlink="http://www.w3.org/1999/xlink" x="0px" y="0px"
	 viewBox="0 0 139.3 137.3" style="enable-background:new 0 0 139.3 137.3;" xml:space="preserve">
<style type="text/css">
	.st0{fill:#1C1C1B;}
</style>
<g>
	<g>
		<g>
			<g>
				<g>
					<g>
						<path class="st0" d="M67.8,46c-0.2-0.2-0.5-0.5-0.9-0.6c-0.3-0.1-0.7-0.2-1.1-0.2s-0.7,0.1-1.1,0.2c-0.3,0.1-0.6,0.3-0.9,0.6
							c-0.2,0.2-0.4,0.5-0.6,0.9C63.1,47.2,63,47.6,63,48c0,0.4,0,0.7,0.2,1.1c0.2,0.3,0.4,0.6,0.6,0.9c0.2,0.2,0.5,0.5,0.9,0.6
							c0.3,0.2,0.7,0.2,1.1,0.2s0.7-0.1,1.1-0.2c0.3-0.1,0.6-0.3,0.9-0.6c0.2-0.2,0.5-0.6,0.6-0.9c0.1-0.3,0.2-0.7,0.2-1.1
							c0-0.4-0.1-0.7-0.2-1.1C68.2,46.5,68,46.2,67.8,46z"/>
					</g>
				</g>
				<g>
					<g>
						<path class="st0" d="M93.7,49.8c0.2-0.2,0.4-0.5,0.5-0.8s0.2-0.7,0.2-1c0-0.4-0.1-0.7-0.2-1c-0.1-0.3-0.3-0.6-0.5-0.9
							c-0.2-0.3-0.5-0.5-0.8-0.6c-0.3-0.2-0.7-0.3-1-0.3v5.5c0.4,0,0.7-0.1,1-0.3S93.5,50.1,93.7,49.8z"/>
					</g>
				</g>
				<g>
					<g>
						<path class="st0" d="M56.5,47.7c0.2-0.1,0.3-0.3,0.4-0.5s0.1-0.4,0.1-0.6c0-0.2,0-0.4-0.1-0.6c-0.1-0.2-0.2-0.3-0.4-0.4
							c-0.2-0.1-0.4-0.2-0.6-0.3s-0.5-0.1-0.7-0.1v2.9c0.2,0,0.5,0,0.7-0.1C56.2,47.9,56.4,47.8,56.5,47.7z"/>
					</g>
				</g>
				<g>
					<g>
						<path class="st0" d="M87.7,66.7c-0.6-0.6-1.3-1.1-2.1-1.5s-1.7-0.6-2.5-0.6v13.7c0.9,0,1.7-0.2,2.5-0.6
							c0.8-0.4,1.5-0.9,2.1-1.5s1-1.3,1.4-2.1c0.3-0.8,0.5-1.7,0.5-2.6c0-0.9-0.2-1.8-0.5-2.6C88.8,68,88.3,67.3,87.7,66.7z"/>
					</g>
				</g>
			</g>
			<g>
				<g>
					<path class="st0" d="M69.7,125.2c-31.2,0-56.6-25.4-56.6-56.6C13.1,37.4,38.5,12,69.7,12s56.6,25.4,56.6,56.6
						C126.2,99.9,100.8,125.2,69.7,125.2L69.7,125.2z M69.7,20.5c-26.5,0-48.1,21.6-48.1,48.1s21.6,48.1,48.1,48.1
						s48.1-21.6,48.1-48.1C117.7,42.1,96.2,20.5,69.7,20.5L69.7,20.5z"/>
				</g>
			</g>
			<g>
				<g>
					<path class="st0" d="M69.6,133.2c-35.6,0-64.5-28.9-64.5-64.5S34,4.2,69.6,4.2s64.5,28.9,64.5,64.5
						C134.2,104.2,105.2,133.2,69.6,133.2L69.6,133.2z M69.6,7.5C35.9,7.5,8.5,34.9,8.5,68.6c0,33.7,27.4,61.1,61.1,61.1
						s61.1-27.4,61.1-61.1C130.8,34.9,103.3,7.5,69.6,7.5L69.6,7.5z"/>
				</g>
			</g>
			<path class="st0" d="M69.7,28.3c-22.3,0-40.4,18.1-40.4,40.4c0,22.3,18.1,40.4,40.4,40.4s40.4-18.1,40.4-40.4
				C110,46.3,92,28.3,69.7,28.3z M89.5,42.8h2.3c0.7,0,1.3,0.2,1.9,0.5c0.6,0.3,1.1,0.7,1.6,1.1c0.4,0.5,0.8,1,1,1.6
				c0.3,0.6,0.4,1.3,0.4,2s-0.1,1.3-0.4,1.9c-0.2,0.6-0.6,1.1-1,1.6c-0.5,0.5-1,0.8-1.6,1.1s-1.2,0.4-1.9,0.5h-2.3V42.8z M80.3,42.9
				h2.6l3.3,5.9v-5.9h2.3v10.2H86l-3.3-5.9v5.9h-2.4L80.3,42.9L80.3,42.9z M61.2,46c0.3-0.6,0.6-1.1,1.1-1.6c0.4-0.4,1-0.8,1.6-1.1
				c0.6-0.2,1.3-0.4,2-0.4s1.4,0.1,2,0.4c0.6,0.3,1.2,0.7,1.6,1.1c0.5,0.5,0.8,1,1.1,1.6s0.4,1.3,0.4,2s-0.2,1.4-0.4,2
				c-0.3,0.6-0.6,1.1-1.1,1.6c-0.4,0.5-1,0.8-1.6,1.1s-1.3,0.4-2,0.4s-1.4-0.1-2-0.4c-0.6-0.2-1.2-0.6-1.6-1.1
				c-0.5-0.5-0.8-1-1.1-1.6c-0.3-0.6-0.4-1.3-0.4-2C60.7,47.2,60.9,46.6,61.2,46z M52.9,42.9h2.3c0.6,0,1.1,0.1,1.6,0.3
				s1,0.5,1.3,0.8c0.4,0.3,0.7,0.7,0.9,1.2c0.2,0.5,0.3,0.9,0.3,1.5s-0.1,1.1-0.4,1.5c-0.2,0.5-0.6,0.9-1,1.2l2.3,3.6h-2.8l-1.6-2.6
				c-0.1,0-0.3,0-0.4,0s-0.2,0-0.4,0V53h-2.3V42.9H52.9z M42.7,47.9c0-0.7,0.1-1.3,0.4-1.9c0.3-0.6,0.6-1.2,1.1-1.7s1.1-0.9,1.7-1.1
				c0.6-0.2,1.3-0.4,1.9-0.4c0.7,0,1.3,0.1,1.9,0.4c0.6,0.3,1.2,0.6,1.7,1.1L49.7,46c-0.3-0.3-0.6-0.5-0.9-0.6
				c-0.4-0.1-0.7-0.2-1.1-0.2c-0.3,0-0.7,0-1,0.2c-0.3,0.1-0.6,0.3-0.9,0.6s-0.5,0.6-0.6,0.9c-0.1,0.3-0.2,0.7-0.2,1
				c0,0.4,0.1,0.7,0.2,1.1c0.1,0.3,0.3,0.6,0.6,0.9c0.2,0.2,0.5,0.5,0.8,0.6s0.6,0.2,0.9,0.2s0.6,0,1-0.1c0.3-0.1,0.6-0.2,0.9-0.4
				v-0.5h-2.1v-2.4h4.4V53h-2.4v-0.3c-0.3,0.1-0.5,0.2-0.8,0.2C48.2,53,48,53,47.7,53c-0.7,0-1.3-0.1-1.9-0.4
				c-0.6-0.3-1.2-0.7-1.7-1.1c-0.5-0.5-0.9-1.1-1.1-1.7C42.9,49.3,42.7,48.6,42.7,47.9z M57.2,104.3l-1.5-0.6l1-2.7l-2,2.2l-1.5-0.6
				l0.2-3.1l-1.3,2.6l-1.5-0.6l3.1-6.2l1.5,0.6l-0.3,4.6l3.1-3.4l1.5,0.6L57.2,104.3z M66,103.3c-0.1,0.4-0.2,0.7-0.4,1
				c-0.2,0.3-0.4,0.5-0.7,0.7c-0.3,0.2-0.6,0.3-0.9,0.4c-0.3,0.1-0.7,0.1-1,0.1l0,0c-0.3-0.1-0.7-0.2-1-0.4s-0.5-0.4-0.7-0.7
				s-0.4-0.6-0.4-0.9c-0.1-0.3-0.1-0.7,0-1l0.7-4.3l1.6,0.3l-0.7,4.3c0,0.3,0,0.5,0.2,0.8c0.2,0.2,0.4,0.4,0.7,0.4
				c0.1,0,0.3,0,0.4,0s0.3-0.1,0.4-0.2c0.1-0.1,0.2-0.2,0.3-0.3c0.1-0.1,0.1-0.2,0.1-0.4l0.7-4.2l1.6,0.3L66,103.3z M62.5,91
				c-1.6,0.7-3.4,1.1-5.2,1.1h-0.2c-1.8,0-3.5-0.3-5.1-1s-3.1-1.6-4.3-2.9c-1.3-1.3-2.3-2.7-3-4.4c-0.7-1.6-1.1-3.4-1.1-5.2V56.2
				h8.2v22.3c0,1.4,0.5,2.7,1.6,3.7s2.3,1.5,3.8,1.5c0.7,0,1.4-0.1,2-0.4c0.7-0.3,1.2-0.7,1.7-1.2s0.9-1.1,1.1-1.7
				c0.3-0.6,0.4-1.4,0.4-2.1V56.1h8.3v22.1c0,1.9-0.3,3.6-1,5.3s-1.7,3.1-2.9,4.3C65.6,89.3,64.1,90.3,62.5,91z M73.3,105
				c-0.2,0.4-0.5,0.7-0.9,0.9c-0.2,0.1-0.3,0.1-0.5,0.2c-0.2,0-0.3,0.1-0.5,0.1s-0.4,0-0.7-0.1c-0.2,0-0.4-0.1-0.6-0.2
				c-0.3-0.2-0.6-0.5-0.8-0.8S69,104.4,69,104l1.6-0.1c0,0.2,0.1,0.3,0.1,0.4c0.1,0.1,0.2,0.2,0.2,0.2c0.1,0.1,0.2,0.1,0.4,0.1
				c0.1,0,0.3,0,0.4-0.1c0.1,0,0.2-0.1,0.2-0.2c0.1-0.1,0.1-0.1,0.1-0.2c0-0.1,0-0.1,0-0.2c0-0.1,0-0.1,0-0.1v-0.1
				c0,0,0-0.1-0.1-0.2c0-0.1-0.1-0.1-0.1-0.2s-0.1-0.1-0.2-0.1c-0.1,0-0.1-0.1-0.2-0.1c-0.1,0-0.2,0-0.3-0.1c-0.2,0-0.3-0.1-0.5-0.1
				c-0.2-0.1-0.3-0.1-0.5-0.2c-0.2-0.1-0.4-0.3-0.6-0.5c-0.2-0.2-0.3-0.4-0.4-0.7c-0.1-0.2-0.1-0.5-0.1-0.7c0-0.3,0.1-0.5,0.2-0.7
				c0.1-0.2,0.2-0.4,0.4-0.6c0.2-0.2,0.3-0.3,0.5-0.4c0.2-0.1,0.4-0.2,0.7-0.2c0.2,0,0.5,0,0.7,0s0.5,0.1,0.7,0.2
				c0.2,0.1,0.4,0.3,0.5,0.4c0.1,0.2,0.3,0.4,0.4,0.6c0.1,0.2,0.1,0.4,0.1,0.7l-1.6,0.1c0-0.1-0.1-0.2-0.2-0.3
				c-0.1-0.1-0.2-0.1-0.2-0.1s0,0-0.1,0c0,0-0.1,0-0.2,0c-0.1,0-0.1,0-0.2,0.1c-0.1,0-0.1,0.1-0.1,0.2c0,0.1-0.1,0.2,0,0.3
				c0,0.1,0.1,0.2,0.2,0.2c0.1,0,0.2,0.1,0.3,0.1s0.2,0.1,0.3,0.1s0.2,0.1,0.3,0.1s0.2,0.1,0.3,0.1c0.4,0.2,0.8,0.4,1,0.8
				c0.3,0.4,0.4,0.8,0.4,1.2C73.6,104.2,73.5,104.6,73.3,105z M72.6,52c-0.4-0.4-0.6-0.8-0.9-1.2c-0.2-0.5-0.3-1-0.3-1.5v-6.4h2.4
				v6.4c0,0.4,0.1,0.8,0.5,1.1c0.3,0.3,0.7,0.4,1.1,0.4c0.2,0,0.4,0,0.6-0.1c0.2-0.1,0.3-0.2,0.5-0.3s0.3-0.3,0.3-0.5
				c0.1-0.2,0.1-0.4,0.1-0.6V43h2.3v6.3c0,0.5-0.1,1-0.3,1.5s-0.4,0.9-0.8,1.2c-0.3,0.3-0.7,0.6-1.2,0.8s-1,0.3-1.5,0.3l0,0
				c-0.5,0-1-0.1-1.5-0.3C73.4,52.6,73,52.3,72.6,52z M76.8,105.3l-1.4-6.8l1.6-0.3l1.4,6.8L76.8,105.3z M85.6,102.4
				c-0.3,0.3-0.7,0.5-1.1,0.7c-0.4,0.2-0.9,0.2-1.3,0.2c-0.5,0-0.9-0.1-1.3-0.3c-0.4-0.2-0.8-0.5-1.1-0.8s-0.6-0.7-0.7-1.1
				c-0.2-0.4-0.2-0.9-0.2-1.3c0-0.5,0.1-0.9,0.3-1.3c0.2-0.4,0.5-0.8,0.8-1.1s0.7-0.5,1.1-0.7c0.4-0.2,0.8-0.2,1.3-0.2
				s0.9,0.1,1.3,0.3l-0.6,1.5c-0.2-0.1-0.5-0.2-0.7-0.2c-0.3,0-0.5,0-0.7,0.1s-0.4,0.2-0.6,0.4c-0.2,0.2-0.3,0.4-0.4,0.6
				c-0.1,0.2-0.2,0.5-0.2,0.7s0,0.5,0.1,0.7s0.2,0.4,0.4,0.6c0.2,0.2,0.4,0.3,0.6,0.4c0.2,0.1,0.5,0.2,0.7,0.2s0.5,0,0.7-0.1
				s0.4-0.2,0.6-0.4c0.2-0.2,0.3-0.4,0.4-0.6l1.5,0.6C86.2,101.7,85.9,102.1,85.6,102.4z M96.7,77.2c-0.8,1.8-1.8,3.4-3.2,4.7
				c-1.4,1.4-2.9,2.5-4.7,3.3s-3.7,1.2-5.7,1.3v5.7h-8.2V56.4h8.2c2,0,4,0.5,5.7,1.3c1.8,0.8,3.3,1.9,4.7,3.3c1.3,1.4,2.4,3,3.2,4.8
				s1.2,3.7,1.2,5.8C97.8,73.5,97.5,75.4,96.7,77.2z"/>
		</g>
	</g>
</g>
</svg>
