<?xml version="1.0" encoding="utf-8"?>
<!-- Generator: Adobe Illustrator 19.2.0, SVG Export Plug-In . SVG Version: 6.00 Build 0)  -->
<svg version="1.1" id="Layer_1" xmlns="http://www.w3.org/2000/svg" xmlns:xlink="http://www.w3.org/1999/xlink" x="0px" y="0px"
	 viewBox="0 0 139.3 137.3" style="enable-background:new 0 0 139.3 137.3;" xml:space="preserve">
<style type="text/css">
	.st0{fill:#FFFFFF;}
</style>
<g>
	<g>
		<g>
			<g>
				<g>
					<g>
						<path class="st0" d="M68.8,47.7c-0.2-0.2-0.5-0.5-0.9-0.6c-0.3-0.1-0.7-0.2-1.1-0.2s-0.7,0.1-1.1,0.2
							c-0.3,0.1-0.6,0.3-0.9,0.6c-0.2,0.2-0.4,0.5-0.6,0.9c-0.1,0.3-0.2,0.7-0.2,1.1c0,0.4,0,0.7,0.2,1.1c0.2,0.3,0.4,0.6,0.6,0.9
							c0.2,0.2,0.5,0.5,0.9,0.6c0.3,0.2,0.7,0.2,1.1,0.2s0.7-0.1,1.1-0.2c0.3-0.1,0.6-0.3,0.9-0.6c0.2-0.2,0.5-0.6,0.6-0.9
							c0.1-0.3,0.2-0.7,0.2-1.1c0-0.4-0.1-0.7-0.2-1.1C69.2,48.2,69,47.9,68.8,47.7z"/>
					</g>
				</g>
				<g>
					<g>
						<path class="st0" d="M94.7,51.5c0.2-0.2,0.4-0.5,0.5-0.8s0.2-0.7,0.2-1c0-0.4-0.1-0.7-0.2-1c-0.1-0.3-0.3-0.6-0.5-0.9
							c-0.2-0.3-0.5-0.5-0.8-0.6c-0.3-0.2-0.7-0.3-1-0.3v5.5c0.4,0,0.7-0.1,1-0.3S94.5,51.8,94.7,51.5z"/>
					</g>
				</g>
				<g>
					<g>
						<path class="st0" d="M57.5,49.4c0.2-0.1,0.3-0.3,0.4-0.5s0.1-0.4,0.1-0.6c0-0.2,0-0.4-0.1-0.6c-0.1-0.2-0.2-0.3-0.4-0.4
							c-0.2-0.1-0.4-0.2-0.6-0.3s-0.5-0.1-0.7-0.1v2.9c0.2,0,0.5,0,0.7-0.1C57.2,49.6,57.4,49.5,57.5,49.4z"/>
					</g>
				</g>
				<g>
					<g>
						<path class="st0" d="M88.7,68.4c-0.6-0.6-1.3-1.1-2.1-1.5s-1.7-0.6-2.5-0.6V80c0.9,0,1.7-0.2,2.5-0.6c0.8-0.4,1.5-0.9,2.1-1.5
							s1-1.3,1.4-2.1c0.3-0.8,0.5-1.7,0.5-2.6c0-0.9-0.2-1.8-0.5-2.6C89.8,69.7,89.3,69,88.7,68.4z"/>
					</g>
				</g>
			</g>
			<g>
				<g>
					<path class="st0" d="M70.7,126.9c-31.2,0-56.6-25.4-56.6-56.6c0-31.2,25.4-56.6,56.6-56.6s56.6,25.4,56.6,56.6
						C127.2,101.6,101.8,126.9,70.7,126.9L70.7,126.9z M70.7,22.2c-26.5,0-48.1,21.6-48.1,48.1s21.6,48.1,48.1,48.1
						s48.1-21.6,48.1-48.1C118.7,43.8,97.2,22.2,70.7,22.2L70.7,22.2z"/>
				</g>
			</g>
			<g>
				<g>
					<path class="st0" d="M70.6,134.9C35,134.9,6.1,106,6.1,70.4S35,5.9,70.6,5.9s64.5,28.9,64.5,64.5
						C135.2,105.9,106.2,134.9,70.6,134.9L70.6,134.9z M70.6,9.2C36.9,9.2,9.5,36.6,9.5,70.3c0,33.7,27.4,61.1,61.1,61.1
						s61.1-27.4,61.1-61.1C131.8,36.6,104.3,9.2,70.6,9.2L70.6,9.2z"/>
				</g>
			</g>
			<path class="st0" d="M70.7,30c-22.3,0-40.4,18.1-40.4,40.4c0,22.3,18.1,40.4,40.4,40.4s40.4-18.1,40.4-40.4C111,48,93,30,70.7,30
				z M90.5,44.5h2.3c0.7,0,1.3,0.2,1.9,0.5c0.6,0.3,1.1,0.7,1.6,1.1c0.4,0.5,0.8,1,1,1.6c0.3,0.6,0.4,1.3,0.4,2s-0.1,1.3-0.4,1.9
				c-0.2,0.6-0.6,1.1-1,1.6c-0.5,0.5-1,0.8-1.6,1.1s-1.2,0.4-1.9,0.5h-2.3V44.5z M81.3,44.6h2.6l3.3,5.9v-5.9h2.3v10.2H87l-3.3-5.9
				v5.9h-2.4L81.3,44.6L81.3,44.6z M62.2,47.7c0.3-0.6,0.6-1.1,1.1-1.6c0.4-0.4,1-0.8,1.6-1.1c0.6-0.2,1.3-0.4,2-0.4s1.4,0.1,2,0.4
				c0.6,0.3,1.2,0.7,1.6,1.1c0.5,0.5,0.8,1,1.1,1.6s0.4,1.3,0.4,2s-0.2,1.4-0.4,2c-0.3,0.6-0.6,1.1-1.1,1.6c-0.4,0.5-1,0.8-1.6,1.1
				s-1.3,0.4-2,0.4s-1.4-0.1-2-0.4c-0.6-0.2-1.2-0.6-1.6-1.1c-0.5-0.5-0.8-1-1.1-1.6c-0.3-0.6-0.4-1.3-0.4-2
				C61.7,48.9,61.9,48.3,62.2,47.7z M53.9,44.6h2.3c0.6,0,1.1,0.1,1.6,0.3s1,0.5,1.3,0.8c0.4,0.3,0.7,0.7,0.9,1.2
				c0.2,0.5,0.3,0.9,0.3,1.5s-0.1,1.1-0.4,1.5c-0.2,0.5-0.6,0.9-1,1.2l2.3,3.6h-2.8l-1.6-2.6c-0.1,0-0.3,0-0.4,0s-0.2,0-0.4,0v2.6
				h-2.3V44.6H53.9z M43.7,49.6c0-0.7,0.1-1.3,0.4-1.9c0.3-0.6,0.6-1.2,1.1-1.7s1.1-0.9,1.7-1.1c0.6-0.2,1.3-0.4,1.9-0.4
				c0.7,0,1.3,0.1,1.9,0.4c0.6,0.3,1.2,0.6,1.7,1.1l-1.7,1.7c-0.3-0.3-0.6-0.5-0.9-0.6c-0.4-0.1-0.7-0.2-1.1-0.2c-0.3,0-0.7,0-1,0.2
				c-0.3,0.1-0.6,0.3-0.9,0.6s-0.5,0.6-0.6,0.9c-0.1,0.3-0.2,0.7-0.2,1c0,0.4,0.1,0.7,0.2,1.1c0.1,0.3,0.3,0.6,0.6,0.9
				c0.2,0.2,0.5,0.5,0.8,0.6s0.6,0.2,0.9,0.2s0.6,0,1-0.1c0.3-0.1,0.6-0.2,0.9-0.4v-0.5h-2.1V49h4.4v5.7h-2.4v-0.3
				c-0.3,0.1-0.5,0.2-0.8,0.2c-0.3,0.1-0.5,0.1-0.8,0.1c-0.7,0-1.3-0.1-1.9-0.4c-0.6-0.3-1.2-0.7-1.7-1.1c-0.5-0.5-0.9-1.1-1.1-1.7
				C43.9,51,43.7,50.3,43.7,49.6z M58.2,106l-1.5-0.6l1-2.7l-2,2.2l-1.5-0.6l0.2-3.1l-1.3,2.6l-1.5-0.6l3.1-6.2l1.5,0.6l-0.3,4.6
				l3.1-3.4l1.5,0.6L58.2,106z M67,105c-0.1,0.4-0.2,0.7-0.4,1c-0.2,0.3-0.4,0.5-0.7,0.7c-0.3,0.2-0.6,0.3-0.9,0.4
				c-0.3,0.1-0.7,0.1-1,0.1l0,0c-0.3-0.1-0.7-0.2-1-0.4s-0.5-0.4-0.7-0.7s-0.4-0.6-0.4-0.9c-0.1-0.3-0.1-0.7,0-1l0.7-4.3l1.6,0.3
				l-0.7,4.3c0,0.3,0,0.5,0.2,0.8c0.2,0.2,0.4,0.4,0.7,0.4c0.1,0,0.3,0,0.4,0s0.3-0.1,0.4-0.2c0.1-0.1,0.2-0.2,0.3-0.3
				c0.1-0.1,0.1-0.2,0.1-0.4l0.7-4.2l1.6,0.3L67,105z M63.5,92.7c-1.6,0.7-3.4,1.1-5.2,1.1h-0.2c-1.8,0-3.5-0.3-5.1-1
				s-3.1-1.6-4.3-2.9c-1.3-1.3-2.3-2.7-3-4.4c-0.7-1.6-1.1-3.4-1.1-5.2V57.9h8.2v22.3c0,1.4,0.5,2.7,1.6,3.7s2.3,1.5,3.8,1.5
				c0.7,0,1.4-0.1,2-0.4c0.7-0.3,1.2-0.7,1.7-1.2s0.9-1.1,1.1-1.7c0.3-0.6,0.4-1.4,0.4-2.1V57.8h8.3v22.1c0,1.9-0.3,3.6-1,5.3
				s-1.7,3.1-2.9,4.3C66.6,91,65.1,92,63.5,92.7z M74.3,106.7c-0.2,0.4-0.5,0.7-0.9,0.9c-0.2,0.1-0.3,0.1-0.5,0.2
				c-0.2,0-0.3,0.1-0.5,0.1s-0.4,0-0.7-0.1c-0.2,0-0.4-0.1-0.6-0.2c-0.3-0.2-0.6-0.5-0.8-0.8s-0.3-0.7-0.3-1.1l1.6-0.1
				c0,0.2,0.1,0.3,0.1,0.4c0.1,0.1,0.2,0.2,0.2,0.2c0.1,0.1,0.2,0.1,0.4,0.1c0.1,0,0.3,0,0.4-0.1c0.1,0,0.2-0.1,0.2-0.2
				c0.1-0.1,0.1-0.1,0.1-0.2c0-0.1,0-0.1,0-0.2c0-0.1,0-0.1,0-0.1v-0.1c0,0,0-0.1-0.1-0.2c0-0.1-0.1-0.1-0.1-0.2
				c-0.1-0.1-0.1-0.1-0.2-0.1c-0.1,0-0.1-0.1-0.2-0.1c-0.1,0-0.2,0-0.3-0.1c-0.2,0-0.3-0.1-0.5-0.1c-0.2-0.1-0.3-0.1-0.5-0.2
				c-0.2-0.1-0.4-0.3-0.6-0.5c-0.2-0.2-0.3-0.4-0.4-0.7c-0.1-0.2-0.1-0.5-0.1-0.7c0-0.3,0.1-0.5,0.2-0.7c0.1-0.2,0.2-0.4,0.4-0.6
				c0.2-0.2,0.3-0.3,0.5-0.4c0.2-0.1,0.4-0.2,0.7-0.2c0.2,0,0.5,0,0.7,0s0.5,0.1,0.7,0.2c0.2,0.1,0.4,0.3,0.5,0.4
				c0.1,0.2,0.3,0.4,0.4,0.6c0.1,0.2,0.1,0.4,0.1,0.7l-1.6,0.1c0-0.1-0.1-0.2-0.2-0.3c-0.1-0.1-0.2-0.1-0.2-0.1s0,0-0.1,0
				c0,0-0.1,0-0.2,0c-0.1,0-0.1,0-0.2,0.1c-0.1,0-0.1,0.1-0.1,0.2c0,0.1-0.1,0.2,0,0.3c0,0.1,0.1,0.2,0.2,0.2c0.1,0,0.2,0.1,0.3,0.1
				s0.2,0.1,0.3,0.1s0.2,0.1,0.3,0.1s0.2,0.1,0.3,0.1c0.4,0.2,0.8,0.4,1,0.8c0.3,0.4,0.4,0.8,0.4,1.2
				C74.6,105.9,74.5,106.3,74.3,106.7z M73.6,53.7c-0.4-0.4-0.6-0.8-0.9-1.2c-0.2-0.5-0.3-1-0.3-1.5v-6.4h2.4V51
				c0,0.4,0.1,0.8,0.5,1.1c0.3,0.3,0.7,0.4,1.1,0.4c0.2,0,0.4,0,0.6-0.1c0.2-0.1,0.3-0.2,0.5-0.3s0.3-0.3,0.3-0.5
				c0.1-0.2,0.1-0.4,0.1-0.6v-6.3h2.3V51c0,0.5-0.1,1-0.3,1.5s-0.4,0.9-0.8,1.2c-0.3,0.3-0.7,0.6-1.2,0.8s-1,0.3-1.5,0.3l0,0
				c-0.5,0-1-0.1-1.5-0.3C74.4,54.3,74,54,73.6,53.7z M77.8,107l-1.4-6.8l1.6-0.3l1.4,6.8L77.8,107z M86.6,104.1
				c-0.3,0.3-0.7,0.5-1.1,0.7c-0.4,0.2-0.9,0.2-1.3,0.2c-0.5,0-0.9-0.1-1.3-0.3c-0.4-0.2-0.8-0.5-1.1-0.8s-0.6-0.7-0.7-1.1
				c-0.2-0.4-0.2-0.9-0.2-1.3c0-0.5,0.1-0.9,0.3-1.3c0.2-0.4,0.5-0.8,0.8-1.1s0.7-0.5,1.1-0.7c0.4-0.2,0.8-0.2,1.3-0.2
				s0.9,0.1,1.3,0.3l-0.6,1.5c-0.2-0.1-0.5-0.2-0.7-0.2c-0.3,0-0.5,0-0.7,0.1s-0.4,0.2-0.6,0.4c-0.2,0.2-0.3,0.4-0.4,0.6
				c-0.1,0.2-0.2,0.5-0.2,0.7s0,0.5,0.1,0.7s0.2,0.4,0.4,0.6c0.2,0.2,0.4,0.3,0.6,0.4c0.2,0.1,0.5,0.2,0.7,0.2s0.5,0,0.7-0.1
				s0.4-0.2,0.6-0.4c0.2-0.2,0.3-0.4,0.4-0.6l1.5,0.6C87.2,103.4,86.9,103.8,86.6,104.1z M97.7,78.9c-0.8,1.8-1.8,3.4-3.2,4.7
				c-1.4,1.4-2.9,2.5-4.7,3.3s-3.7,1.2-5.7,1.3v5.7h-8.2V58.1h8.2c2,0,4,0.5,5.7,1.3c1.8,0.8,3.3,1.9,4.7,3.3c1.3,1.4,2.4,3,3.2,4.8
				s1.2,3.7,1.2,5.8C98.8,75.2,98.5,77.1,97.7,78.9z"/>
		</g>
	</g>
</g>
</svg>
