<?xml version="1.0" encoding="utf-8"?>
<!-- Generator: Adobe Illustrator 19.0.1, SVG Export Plug-In . SVG Version: 6.00 Build 0)  -->
<svg version="1.1" id="Layer_1" xmlns="http://www.w3.org/2000/svg" xmlns:xlink="http://www.w3.org/1999/xlink" x="0px" y="0px"
	 viewBox="-325 544.7 139.3 137.3" style="enable-background:new -325 544.7 139.3 137.3;" xml:space="preserve">
<style type="text/css">
	.st0{fill:#FFFFFF;}
	.st1{fill:#1C1C1B;}
</style>
<g>
	<path class="st0" d="M-255.4,552.2L-255.4,552.2c-33.7,0-61.1,27.4-61.1,61.1c0,33.7,27.4,61.1,61.1,61.1
		c33.7,0,61.1-27.4,61.1-61.1C-194.2,579.6-221.7,552.2-255.4,552.2"/>
	<g>
		<g>
			<g>
				<g>
					<g>
						<path class="st1" d="M-257.2,590.7c-0.2-0.2-0.5-0.5-0.9-0.6c-0.3-0.1-0.7-0.2-1.1-0.2c-0.4,0-0.7,0.1-1.1,0.2
							c-0.3,0.1-0.6,0.3-0.9,0.6c-0.2,0.2-0.4,0.5-0.6,0.9c-0.1,0.3-0.2,0.7-0.2,1.1c0,0.4,0,0.7,0.2,1.1c0.2,0.3,0.4,0.6,0.6,0.9
							c0.2,0.2,0.5,0.5,0.9,0.6c0.3,0.2,0.7,0.2,1.1,0.2c0.4,0,0.7-0.1,1.1-0.2c0.3-0.1,0.6-0.3,0.9-0.6c0.2-0.2,0.5-0.6,0.6-0.9
							c0.1-0.3,0.2-0.7,0.2-1.1c0-0.4-0.1-0.7-0.2-1.1C-256.8,591.2-257,590.9-257.2,590.7z"/>
					</g>
				</g>
				<g>
					<g>
						<path class="st1" d="M-231.3,594.5c0.2-0.2,0.4-0.5,0.5-0.8c0.1-0.3,0.2-0.7,0.2-1c0-0.4-0.1-0.7-0.2-1
							c-0.1-0.3-0.3-0.6-0.5-0.9c-0.2-0.3-0.5-0.5-0.8-0.6c-0.3-0.2-0.7-0.3-1-0.3v5.5c0.4,0,0.7-0.1,1-0.3
							C-231.8,594.9-231.5,594.8-231.3,594.5z"/>
					</g>
				</g>
				<g>
					<g>
						<path class="st1" d="M-268.5,592.4c0.2-0.1,0.3-0.3,0.4-0.5c0.1-0.2,0.1-0.4,0.1-0.6c0-0.2,0-0.4-0.1-0.6
							c-0.1-0.2-0.2-0.3-0.4-0.4c-0.2-0.1-0.4-0.2-0.6-0.3c-0.2-0.1-0.5-0.1-0.7-0.1v2.9c0.2,0,0.5,0,0.7-0.1
							C-268.8,592.6-268.6,592.5-268.5,592.4z"/>
					</g>
				</g>
				<g>
					<g>
						<path class="st1" d="M-237.3,611.4c-0.6-0.6-1.3-1.1-2.1-1.5c-0.8-0.4-1.7-0.6-2.5-0.6V623c0.9,0,1.7-0.2,2.5-0.6
							c0.8-0.4,1.5-0.9,2.1-1.5c0.6-0.6,1-1.3,1.4-2.1c0.3-0.8,0.5-1.7,0.5-2.6c0-0.9-0.2-1.8-0.5-2.6
							C-236.2,612.7-236.7,612-237.3,611.4z"/>
					</g>
				</g>
			</g>
			<g>
				<g>
					<path class="st1" d="M-255.3,669.9c-31.2,0-56.6-25.4-56.6-56.6c0-31.2,25.4-56.6,56.6-56.6c31.2,0,56.6,25.4,56.6,56.6
						C-198.8,644.6-224.2,669.9-255.3,669.9L-255.3,669.9z M-255.3,565.2c-26.5,0-48.1,21.6-48.1,48.1c0,26.5,21.6,48.1,48.1,48.1
						c26.5,0,48.1-21.6,48.1-48.1C-207.3,586.8-228.8,565.2-255.3,565.2L-255.3,565.2z"/>
				</g>
			</g>
			<g>
				<g>
					<path class="st1" d="M-255.4,677.9c-35.6,0-64.5-28.9-64.5-64.5c0-35.6,28.9-64.5,64.5-64.5c35.6,0,64.5,28.9,64.5,64.5
						C-190.8,648.9-219.8,677.9-255.4,677.9L-255.4,677.9z M-255.4,552.2c-33.7,0-61.1,27.4-61.1,61.1c0,33.7,27.4,61.1,61.1,61.1
						c33.7,0,61.1-27.4,61.1-61.1C-194.2,579.6-221.7,552.2-255.4,552.2L-255.4,552.2z"/>
				</g>
			</g>
			<path class="st1" d="M-255.3,573c-22.3,0-40.4,18.1-40.4,40.4c0,22.3,18.1,40.4,40.4,40.4c22.3,0,40.4-18.1,40.4-40.4
				C-215,591-233,573-255.3,573z M-235.5,587.5h2.3c0.7,0,1.3,0.2,1.9,0.5c0.6,0.3,1.1,0.7,1.6,1.1c0.4,0.5,0.8,1,1,1.6
				c0.3,0.6,0.4,1.3,0.4,2c0,0.7-0.1,1.3-0.4,1.9c-0.2,0.6-0.6,1.1-1,1.6c-0.5,0.5-1,0.8-1.6,1.1c-0.6,0.3-1.2,0.4-1.9,0.5h-2.3
				V587.5z M-244.7,587.6h2.6l3.3,5.9v-5.9h2.3v10.2h-2.5l-3.3-5.9v5.9h-2.4V587.6z M-263.8,590.7c0.3-0.6,0.6-1.1,1.1-1.6
				c0.4-0.4,1-0.8,1.6-1.1c0.6-0.2,1.3-0.4,2-0.4c0.7,0,1.4,0.1,2,0.4c0.6,0.3,1.2,0.7,1.6,1.1c0.5,0.5,0.8,1,1.1,1.6
				c0.3,0.6,0.4,1.3,0.4,2c0,0.7-0.2,1.4-0.4,2c-0.3,0.6-0.6,1.1-1.1,1.6c-0.4,0.5-1,0.8-1.6,1.1c-0.6,0.3-1.3,0.4-2,0.4
				c-0.7,0-1.4-0.1-2-0.4c-0.6-0.2-1.2-0.6-1.6-1.1c-0.5-0.5-0.8-1-1.1-1.6c-0.3-0.6-0.4-1.3-0.4-2
				C-264.3,591.9-264.1,591.3-263.8,590.7z M-272.1,587.6h2.3c0.6,0,1.1,0.1,1.6,0.3c0.5,0.2,1,0.5,1.3,0.8c0.4,0.3,0.7,0.7,0.9,1.2
				c0.2,0.5,0.3,0.9,0.3,1.5c0,0.6-0.1,1.1-0.4,1.5c-0.2,0.5-0.6,0.9-1,1.2l2.3,3.6h-2.8l-1.6-2.6c-0.1,0-0.3,0-0.4,0
				c-0.1,0-0.2,0-0.4,0v2.6h-2.3V587.6z M-282.3,592.6c0-0.7,0.1-1.3,0.4-1.9c0.3-0.6,0.6-1.2,1.1-1.7c0.5-0.5,1.1-0.9,1.7-1.1
				c0.6-0.2,1.3-0.4,1.9-0.4c0.7,0,1.3,0.1,1.9,0.4c0.6,0.3,1.2,0.6,1.7,1.1l-1.7,1.7c-0.3-0.3-0.6-0.5-0.9-0.6
				c-0.4-0.1-0.7-0.2-1.1-0.2c-0.3,0-0.7,0-1,0.2c-0.3,0.1-0.6,0.3-0.9,0.6c-0.3,0.3-0.5,0.6-0.6,0.9c-0.1,0.3-0.2,0.7-0.2,1
				c0,0.4,0.1,0.7,0.2,1.1c0.1,0.3,0.3,0.6,0.6,0.9c0.2,0.2,0.5,0.5,0.8,0.6c0.3,0.1,0.6,0.2,0.9,0.2c0.3,0,0.6,0,1-0.1
				c0.3-0.1,0.6-0.2,0.9-0.4v-0.5h-2.1v-2.4h4.4v5.7h-2.4v-0.3c-0.3,0.1-0.5,0.2-0.8,0.2c-0.3,0.1-0.5,0.1-0.8,0.1
				c-0.7,0-1.3-0.1-1.9-0.4c-0.6-0.3-1.2-0.7-1.7-1.1c-0.5-0.5-0.9-1.1-1.1-1.7C-282.1,594-282.3,593.3-282.3,592.6z M-267.8,649
				l-1.5-0.6l1-2.7l-2,2.2l-1.5-0.6l0.2-3.1l-1.3,2.6l-1.5-0.6l3.1-6.2l1.5,0.6l-0.3,4.6l3.1-3.4l1.5,0.6L-267.8,649z M-259,648
				c-0.1,0.4-0.2,0.7-0.4,1c-0.2,0.3-0.4,0.5-0.7,0.7c-0.3,0.2-0.6,0.3-0.9,0.4c-0.3,0.1-0.7,0.1-1,0.1l0,0c-0.3-0.1-0.7-0.2-1-0.4
				c-0.3-0.2-0.5-0.4-0.7-0.7c-0.2-0.3-0.4-0.6-0.4-0.9c-0.1-0.3-0.1-0.7,0-1l0.7-4.3l1.6,0.3l-0.7,4.3c0,0.3,0,0.5,0.2,0.8
				c0.2,0.2,0.4,0.4,0.7,0.4c0.1,0,0.3,0,0.4,0c0.1,0,0.3-0.1,0.4-0.2c0.1-0.1,0.2-0.2,0.3-0.3c0.1-0.1,0.1-0.2,0.1-0.4l0.7-4.2
				l1.6,0.3L-259,648z M-262.5,635.7c-1.6,0.7-3.4,1.1-5.2,1.1h-0.2c-1.8,0-3.5-0.3-5.1-1c-1.6-0.7-3.1-1.6-4.3-2.9
				c-1.3-1.3-2.3-2.7-3-4.4c-0.7-1.6-1.1-3.4-1.1-5.2v-22.4h8.2v22.3c0,1.4,0.5,2.7,1.6,3.7c1.1,1,2.3,1.5,3.8,1.5
				c0.7,0,1.4-0.1,2-0.4c0.7-0.3,1.2-0.7,1.7-1.2c0.5-0.5,0.9-1.1,1.1-1.7c0.3-0.6,0.4-1.4,0.4-2.1v-22.2h8.3v22.1
				c0,1.9-0.3,3.6-1,5.3c-0.7,1.7-1.7,3.1-2.9,4.3C-259.4,634-260.9,635-262.5,635.7z M-251.7,649.7c-0.2,0.4-0.5,0.7-0.9,0.9
				c-0.2,0.1-0.3,0.1-0.5,0.2c-0.2,0-0.3,0.1-0.5,0.1c-0.2,0-0.4,0-0.7-0.1c-0.2,0-0.4-0.1-0.6-0.2c-0.3-0.2-0.6-0.5-0.8-0.8
				c-0.2-0.3-0.3-0.7-0.3-1.1l1.6-0.1c0,0.2,0.1,0.3,0.1,0.4c0.1,0.1,0.2,0.2,0.2,0.2c0.1,0.1,0.2,0.1,0.4,0.1c0.1,0,0.3,0,0.4-0.1
				c0.1,0,0.2-0.1,0.2-0.2c0.1-0.1,0.1-0.1,0.1-0.2c0-0.1,0-0.1,0-0.2c0-0.1,0-0.1,0-0.1c0,0,0-0.1,0-0.1c0,0,0-0.1-0.1-0.2
				c0-0.1-0.1-0.1-0.1-0.2s-0.1-0.1-0.2-0.1c-0.1,0-0.1-0.1-0.2-0.1c-0.1,0-0.2,0-0.3-0.1c-0.2,0-0.3-0.1-0.5-0.1
				c-0.2-0.1-0.3-0.1-0.5-0.2c-0.2-0.1-0.4-0.3-0.6-0.5c-0.2-0.2-0.3-0.4-0.4-0.7c-0.1-0.2-0.1-0.5-0.1-0.7c0-0.3,0.1-0.5,0.2-0.7
				c0.1-0.2,0.2-0.4,0.4-0.6c0.2-0.2,0.3-0.3,0.5-0.4c0.2-0.1,0.4-0.2,0.7-0.2c0.2,0,0.5,0,0.7,0c0.2,0,0.5,0.1,0.7,0.2
				c0.2,0.1,0.4,0.3,0.5,0.4c0.1,0.2,0.3,0.4,0.4,0.6c0.1,0.2,0.1,0.4,0.1,0.7l-1.6,0.1c0-0.1-0.1-0.2-0.2-0.3
				c-0.1-0.1-0.2-0.1-0.2-0.1c0,0,0,0-0.1,0c0,0-0.1,0-0.2,0c-0.1,0-0.1,0-0.2,0.1c-0.1,0-0.1,0.1-0.1,0.2c0,0.1-0.1,0.2,0,0.3
				c0,0.1,0.1,0.2,0.2,0.2c0.1,0,0.2,0.1,0.3,0.1c0.1,0,0.2,0.1,0.3,0.1c0.1,0,0.2,0.1,0.3,0.1c0.1,0,0.2,0.1,0.3,0.1
				c0.4,0.2,0.8,0.4,1,0.8c0.3,0.4,0.4,0.8,0.4,1.2C-251.4,648.9-251.5,649.3-251.7,649.7z M-252.4,596.7c-0.4-0.4-0.6-0.8-0.9-1.2
				c-0.2-0.5-0.3-1-0.3-1.5v-6.4h2.4v6.4c0,0.4,0.1,0.8,0.5,1.1c0.3,0.3,0.7,0.4,1.1,0.4c0.2,0,0.4,0,0.6-0.1
				c0.2-0.1,0.3-0.2,0.5-0.3c0.2-0.1,0.3-0.3,0.3-0.5c0.1-0.2,0.1-0.4,0.1-0.6v-6.3h2.3v6.3c0,0.5-0.1,1-0.3,1.5
				c-0.2,0.5-0.4,0.9-0.8,1.2c-0.3,0.3-0.7,0.6-1.2,0.8c-0.5,0.2-1,0.3-1.5,0.3h0c-0.5,0-1-0.1-1.5-0.3
				C-251.6,597.3-252,597-252.4,596.7z M-248.2,650l-1.4-6.8l1.6-0.3l1.4,6.8L-248.2,650z M-239.4,647.1c-0.3,0.3-0.7,0.5-1.1,0.7
				c-0.4,0.2-0.9,0.2-1.3,0.2c-0.5,0-0.9-0.1-1.3-0.3c-0.4-0.2-0.8-0.5-1.1-0.8c-0.3-0.3-0.6-0.7-0.7-1.1c-0.2-0.4-0.2-0.9-0.2-1.3
				c0-0.5,0.1-0.9,0.3-1.3c0.2-0.4,0.5-0.8,0.8-1.1c0.3-0.3,0.7-0.5,1.1-0.7c0.4-0.2,0.8-0.2,1.3-0.2c0.5,0,0.9,0.1,1.3,0.3
				l-0.6,1.5c-0.2-0.1-0.5-0.2-0.7-0.2c-0.3,0-0.5,0-0.7,0.1c-0.2,0.1-0.4,0.2-0.6,0.4c-0.2,0.2-0.3,0.4-0.4,0.6
				c-0.1,0.2-0.2,0.5-0.2,0.7c0,0.2,0,0.5,0.1,0.7c0.1,0.2,0.2,0.4,0.4,0.6c0.2,0.2,0.4,0.3,0.6,0.4c0.2,0.1,0.5,0.2,0.7,0.2
				c0.2,0,0.5,0,0.7-0.1c0.2-0.1,0.4-0.2,0.6-0.4c0.2-0.2,0.3-0.4,0.4-0.6l1.5,0.6C-238.8,646.4-239.1,646.8-239.4,647.1z
				 M-228.3,621.9c-0.8,1.8-1.8,3.4-3.2,4.7c-1.4,1.4-2.9,2.5-4.7,3.3c-1.8,0.8-3.7,1.2-5.7,1.3v5.7h-8.2v-35.8h8.2
				c2,0,4,0.5,5.7,1.3c1.8,0.8,3.3,1.9,4.7,3.3c1.3,1.4,2.4,3,3.2,4.8c0.8,1.8,1.2,3.7,1.2,5.8
				C-227.2,618.2-227.5,620.1-228.3,621.9z"/>
		</g>
	</g>
</g>
</svg>
